# xmcd
#
# Track frame offsets:
#	150
#	18898
#	34380
#	48940
#	61982
#	78377
#	90979
#	104722
#	122490
#	140400
#	154445
#	170388
#	188239
#	204514
#	220082
#
# Disc length: 3169 seconds
#
# Revision: 0
# Processed by: cddbd v1.5.1PL2 Copyright (c) Steve Scherf et al.
# Submitted via: AudioConverter v4.5 Copyright (c) AC Productions Ltd
#
DISCID=ca0c5f0f
DTITLE=Various Artist - Singers and Songwriters - Once Upon a Time in the West CD 2
DYEAR=2004
DGENRE=Country
TTITLE0=Alabama - Roll On (Eighteen Wheeler)
TTITLE1=Billy Ray Cyrus - Achy Breaky Heart
TTITLE2=Don Williams - Tulsa Time
TTITLE3=Sawyer Brown - Six Days On the Road
TTITLE4=Steve Miller Band - The Joker
TTITLE5=J J Cale - Cocaine
TTITLE6=Stephen Bishop - On and On
TTITLE7=Mark Chesnutt - I Don't Want To Miss A Thing
TTITLE8=Andrew Gold - How Can This Be Love
TTITLE9=Warren Zevon - Poor Poor Pitiful Me
TTITLE10=Randy Newman - I Love LA
TTITLE11=Little Feat - Dixie Chicken
TTITLE12=The Mavericks - All That Heaven Will Allow
TTITLE13=Dan Seals - My Baby's Got A Good Thing
TTITLE14=Clint Black - Nothin' But The Taillights
EXTD=
EXTT0=
EXTT1=
EXTT2=
EXTT3=
EXTT4=
EXTT5=
EXTT6=
EXTT7=
EXTT8=
EXTT9=
EXTT10=
EXTT11=
EXTT12=
EXTT13=
EXTT14=
PLAYORDER=
